<?xml version="1.0"?>
<svg xmlns="http://www.w3.org/2000/svg"
  xmlns:xlink="http://www.w3.org/1999/xlink"
  width="10in"
  height="10in"
  viewBox="-10 -10 20 20"
>
  <title xml:lang="en">Knotwork</title>
  <desc xml:lang="en">
    Construction of knotwork on 1/2 inch grid graph paper.
    From the book "Mandala, Journey to the Centre", by Bailey Cunningham.
  </desc>
  <title xml:lang="fr">Entrelacs</title>
  <desc xml:lang="fr">
    Construstion d'un entrelacs sur du papier quadrillé.
    Extraite du livre "Mandala, Voyage vers le centre", de Bailey Cunningham.
  </desc>
  <style type="text/css">
    .pen, .grid {
      fill: none;
    }
    .grid {
      stroke: #7fdfff;
      stroke-width: 0.02; /* 2.5mm */
    }
    .pen {
      stroke: black;
      stroke-width: 0.04; /* 5mm */
    }
  </style>
  <defs>
    <pattern id="grid" patternUnits="userSpaceOnUse"
      x="0" y="0" width="1" height="1"
    >
      <rect x="0" y="0" width="1" height="1" class="grid" />
    </pattern>
  </defs>
  <rect id="background-grid" fill="url(#grid)"
    x="-9.5" y="-9.5" width="19" height="19"
  />
  <circle id="center" class="pen" x="0" y="0" r="0.02" />
  <g id="bottom-right">
    <g id="step1">
      <line x1="0" y1="0" x2="1" y2="1" class="pen" />
      <rect x="2" y="2" width="1" height="1" class="pen" />
      <rect x="2" y="4" width="1" height="1" class="pen" />
      <rect x="2" y="6" width="1" height="1" class="pen" />
      <rect x="4" y="2" width="1" height="1" class="pen" />
      <rect x="4" y="4" width="1" height="1" class="pen" />
      <rect x="6" y="2" width="1" height="1" class="pen" />
    </g>
    <g id="step2">
      <path
        d="M1,1v2m0,1v1m0,1v1 M1,1h2m1,0h1m1,0h1 m0,3h-1v2h-2v1"
        class="pen"
      />
    </g>
  </g>
  <use id="bottom-left" xlink:href="#bottom-right" transform="scale(-1,1)" />
  <use id="top-left" xlink:href="#bottom-right" transform="scale(-1,-1)" />
  <use id="top-right" xlink:href="#bottom-right" transform="scale(1,-1)" />
</svg>
