<?xml version="1.0"?>
<svg xmlns="http://www.w3.org/2000/svg"
  xmlns:xlink="http://www.w3.org/1999/xlink"
  width="10in"
  height="10in"
  viewBox="-10 -10 20 20"
>
  <title xml:lang="en">Knotwork</title>
  <desc xml:lang="en">
    Construction of knotwork on 1/2 inch grid graph paper.
    From the book "Mandala, Journey to the Centre", by Bailey Cunningham.
  </desc>
  <title xml:lang="fr">Entrelacs</title>
  <desc xml:lang="fr">
    Construstion d'un entrelacs sur du papier quadrillé.
    Extraite du livre "Mandala, Voyage vers le centre", de Bailey Cunningham.
  </desc>
  <style type="text/css">
    /* .step0, .step1, .step2, .step3, .step4 */
    .step5 {
      visibility: hidden;
    }
    .pen, .grid {
      fill: none;
    }
    .grid {
      stroke: #7fdfff;
      stroke-width: 0.02; /* 2.5mm */
    }
    .pen {
      stroke: black;
      stroke-width: 0.04; /* 5mm */
    }
    .strong {
      stroke-width: 0.056; /* 7mm */
    }
  </style>
  <defs>
    <pattern id="grid" patternUnits="userSpaceOnUse"
      x="0" y="0" width="1" height="1"
    >
      <rect x="0" y="0" width="1" height="1" class="grid" />
    </pattern>
    <g id="quarter">
      <g class="step1">
        <line x1="0" y1="0" x2="1" y2="1" class="pen" />
        <rect x="2" y="2" width="1" height="1" class="pen" />
        <rect x="2" y="4" width="1" height="1" class="pen" />
        <rect x="2" y="6" width="1" height="1" class="pen" />
        <rect x="4" y="2" width="1" height="1" class="pen" />
        <rect x="4" y="4" width="1" height="1" class="pen" />
        <rect x="6" y="2" width="1" height="1" class="pen" />
      </g>
      <g class="step2">
        <path
          d="M1,1v2m0,1v1m0,1v1 M1,1h2m1,0h1m1,0h1 m0,3h-1v2h-2v1"
          class="pen"
        />
      </g>
      <g class="step4">
        <path
          d="M1,7a1.5,1 0 1 0 3,0
             M7,1a1,1.5 0 1 1 0,3"
          class="pen"
        />
      </g>
    </g>
  </defs>
  <rect id="background-grid" fill="url(#grid)"
    x="-9.5" y="-9.5" width="19" height="19"
  />
  <circle id="center" class="step0 pen" x="0" y="0" r="0.02" />
  <use id="bottom-right" xlink:href="#quarter" />
  <use id="bottom-left" xlink:href="#quarter" transform="scale(-1,1)" />
  <use id="top-left" xlink:href="#quarter" transform="scale(-1,-1)" />
  <use id="top-right" xlink:href="#quarter" transform="scale(1,-1)" />
  <g id="rings">
    <g id="half-rings">
      <g id="half-inner-ring">
        <path
          d="M3,5v1m1,-1v1
             M5,1h1m-1,1h1
             M5,-3h1m-1,-1h1
             M1,-6v1m1,-1v1"
          class="pen step3"
        />
        <path
          d="M2,3v1m-1,0v-1l-1,-1l-1,1m0,1l1,-1l1,1
             M3,1v1m1,0v-1l-1,-1l1,-1m-1,2l-1,-1l1,-1l1,0m0,-1l-1,0
             M3,3h1m0,1h-1
             M1,-3h1m0,-1h-1
             M3,-3v-1m1,0v1"
          class="pen step4"
        />
      </g>
      <g id="half-outer-ring">
        <path
          d="M0,7l1,-1h2m1,0h2v-4m0,-1l1,-1l-1,-1v-2m0,-1v-2h-4m-1,0l-1,-1
             M0,6l1,-1h2m1,0h1v-3m0,-1l1,-1l-1,-1v-2m0,-1v-1h-3m-1,0l-1,-1"
          class="pen step3"
        />
      </g>
    </g>
    <use xlink:href="#half-rings" transform="scale(-1,-1)" />
  </g>
</svg>
