<?xml version="1.0"?>
<svg xmlns="http://www.w3.org/2000/svg"
  xmlns:xlink="http://www.w3.org/1999/xlink"
  width="10in"
  height="10in"
  viewBox="-500 -500 1000 1000"
>
  <title xml:lang="en">6-ray Mandala</title>
  <desc xml:lang="en">
    Exercise to draw of mandala with 6 rays,
    from the book "Mandala, Journey to the Centre", by Bailey Cunningham
  </desc>
  <title xml:lang="fr">Mandala à 6 rayons</title>
  <desc xml:lang="fr">
    Exercice de réalisation d'un mandala à six rayons,
    du livre "Mandala, Voyage vers le centre", de Bailey Cunningham
  </desc>
  <style type="text/css">
    .empty, path {
      fill: none;
    }
    .dashed {
      stroke: #eee;
      stroke-dasharray: 25,20;
      stroke-width: 5;
    }
    .strong {
      stroke-width: 5;
    }
    .roundend {
      stroke-linecap: round;
    }
    line, path {
      stroke: black;
      stroke-width: 2.5;
    }
    polygon {
      stroke: none;
      fill: black;
    }
  </style>
  <defs>
    <circle id="point" r="2.5" />
    <line id="vline45" x1="0" x2="0" y1="0" y2="45" />
    <line id="vline50" x1="0" x2="0" y1="0" y2="50" />
    <line id="vline70.71" x1="0" x2="0" y1="0" y2="70.71" />
    <line id="vline100" x1="0" x2="0" y1="0" y2="100" />
    <line id="vline125" x1="0" x2="0" y1="0" y2="125" />
    <line id="hline100" x1="-50" x2="50" y1="0" y2="0" />
    <g id="short-line">
      <g id="half-short-line">
        <line x1="0" x2="300" y1="0" y2="0" class="dashed" />
        <use xlink:href="#point" transform="translate(150)" />
        <use xlink:href="#point" transform="translate(275)" />
        <use xlink:href="#point" transform="translate(300)" />
      </g>
      <use xlink:href="#half-short-line" transform="scale(-1)" />
    </g>
    <g id="long-line">
      <g id="half-long-line">
        <line x1="0" x2="450" y1="0" y2="0" class="dashed" />
        <use xlink:href="#point" transform="translate(25)" />
        <use xlink:href="#point" transform="translate(50)" />
        <use xlink:href="#point" transform="translate(65)" />
        <use xlink:href="#point" transform="translate(175)" />
        <use xlink:href="#point" transform="translate(225)" />
        <use xlink:href="#point" transform="translate(300)" />
        <use xlink:href="#point" transform="translate(350)" />
        <use xlink:href="#point" transform="translate(400)" />
        <use xlink:href="#point" transform="translate(450)" />
      </g>
      <use xlink:href="#half-long-line" transform="scale(-1)" />
    </g>
    <!-- Pythagoras's theorem of right-angled triangle gives:
      h² + (a/2)² = a²
    which gives
      h² = a² - (a/2)² = a² - a²/4 = 3a²/4
    or
      h = √3*a/2
    with a=43,3012702, h~37,500000019
    with a=50, h~43,3012702
    with a=65, h~56,29165126
    with a=150, h~129,9038106
    with a=300, h~259,8076212
    -->
    <line id="hex50" x1="-25" x2="25" y1="43.30" y2="43.30" />
    <line id="hex65" x1="-32.5" x2="32.5" y1="56.29" y2="56.29" />
    <line id="hex150" x1="-75" x2="75" y1="129.90" y2="129.90" />
    <line id="stardust-25-43.30" x1="0" y1="25" x2="21.65" y2="37.5" />
    <line id="stardust-65-150" x1="0" y1="65" x2="75" y2="129.90" />
    <line id="stardust-175-300" x1="0" y1="175" x2="150" y2="259.81" />
    <line id="stardust-225-300" x1="0" y1="225" x2="150" y2="259.81" />
    <!-- According to Thales's Theorem, given two parallel base lines
    inside the triangle which makes a branch of a star,
    the ratio of distances of the star tip to each line equals
    the ratio of lengths of the base lines.
    This gives the length of the base line at 25 (0.25in) from the tip
    of the star 175-300 as:
      b / 175 = 25 / (300 - √3*175/2)
    i.e.
      b ~ 29,472085039
    and
      b/2 ~ 14,73604252
    -->
    <line id="tipline-275-of-star-175-300"
      x1="-14.74" y1="275" x2="14.74" y2="275"
    />
    <polygon id="diamond-28x16" points="-14,0 0,-8 14,0 0,8" />
    <polygon id="diamond-38x22" points="-19,0 0,-11 19,0 0,11" />
  </defs>
  <g id="construction">
    <circle cx="0" cy="0" r="150" class="empty dashed" />
    <circle cx="0" cy="0" r="300" class="empty dashed" />
    <g id="scaffolding-branch">
      <use xlink:href="#short-line" />
      <use xlink:href="#long-line" transform="rotate(30)" />
    </g>
    <use xlink:href="#scaffolding-branch" transform="rotate(60)" />
    <use xlink:href="#scaffolding-branch" transform="rotate(120)" />
    <use xlink:href="#scaffolding-branch" transform="rotate(180)" />
    <use xlink:href="#scaffolding-branch" transform="rotate(240)" />
    <use xlink:href="#scaffolding-branch" transform="rotate(300)" />
    <use xlink:href="#point" />
  </g>
  <g id="branch">
    <g id="diamond-star">
      <use xlink:href="#diamond-38x22" transform="rotate(30)" />
    </g>
    <g id="stick-star-50">
      <use xlink:href="#vline50" transform="translate(0,-25)" />
    </g>
    <g id="star-25-43.30">
      <g id="half-star-25-43.30">
        <use xlink:href="#stardust-25-43.30" />
      </g>
      <use xlink:href="#half-star-25-43.30" transform="scale(-1,1)" />
    </g>
    <g id="diamond-pane">
      <use xlink:href="#diamond-28x16" transform="translate(0,37.5)" />
    </g>
    <g id="hexagon50">
      <use xlink:href="#hex50" transform="rotate(30)" />
    </g>
    <g id="hexagon65">
      <use xlink:href="#hex65" transform="rotate(30)" />
    </g>
    <g id="star-65-150">
      <g id="half-star-65-150">
        <use xlink:href="#stardust-65-150" />
      </g>
      <use xlink:href="#half-star-65-150" transform="scale(-1,1)" />
    </g>
    <g id="triangle-facet">
      <line x1="-30" x2="30" y1="115" y2="115" />
      <line x1="-30" x2="0" y1="113.5" y2="95" class="strong roundend" />
      <line x1="30" x2="0" y1="113.5" y2="95" class="strong roundend" />
    </g>
    <g id="hexagon150">
      <use xlink:href="#hex150" />
    </g>
    <g id="bridge-like-structure-on-top-of-hexagon150">
      <line x1="-7.5" x2="-7.5" y1="129.90" y2="140" class="strong" />
      <line x1="0" x2="0" y1="129.90" y2="150" />
      <line x1="7.5" x2="7.5" y1="129.90" y2="140" class="strong" />
      <path d="
        M-77.5,134.23 C-70,129.90
        0,129.90 0,150 C0,129.90
        70,129.90 77.5,134.23"
      />
    </g>
    <g id="gothic-arches-below-star-175-300">
      <path d="
        M-137.5,238.16 C-112.5,238.61
        -77,220 -60,197 -50,200
        -10,185 0,175 10,185
        50,200 60,197 77,220
        112.5,238.61 137.5,238.16
        "
      />
    </g>
    <g id="star-175-300">
      <g id="half-star-175-300">
        <use xlink:href="#stardust-175-300" />
      </g>
      <use xlink:href="#half-star-175-300" transform="scale(-1,1)" />
    </g>
    <g id="extra-startips-225">
      <g id="extra-startip-225">
        <use xlink:href="#vline45" transform="translate(0,225) rotate(-135)" />
        <use xlink:href="#vline45" transform="translate(0,225) rotate(135)" />
      </g>
    </g>
    <g id="tiplines-of-star-175-300">
      <use xlink:href="#tipline-275-of-star-175-300" transform="rotate(30)" />
    </g>
    <g id="star-225-300">
      <g id="half-star-225-300">
        <use xlink:href="#stardust-225-300" />
      </g>
      <use xlink:href="#half-star-225-300" transform="scale(-1,1)" />
    </g>
    <g id="snowflake">
      <use xlink:href="#vline125" transform="translate(0,225)" />
      <use xlink:href="#vline100" transform="translate(0,300) rotate(-45)" />
      <use xlink:href="#vline100" transform="translate(0,300) rotate(45)" />
      <use xlink:href="#vline70.71" transform="translate(0,350) rotate(-45)" />
      <use xlink:href="#vline70.71" transform="translate(0,350) rotate(45)" />
      <use xlink:href="#hline100" transform="translate(0,400)" />
    </g>
  </g>
  <use xlink:href="#branch" transform="rotate(60)" />
  <use xlink:href="#branch" transform="rotate(120)" />
  <use xlink:href="#branch" transform="rotate(180)" />
  <use xlink:href="#branch" transform="rotate(240)" />
  <use xlink:href="#branch" transform="rotate(300)" />
</svg>
